# xmcd
#
# Track frame offsets: 
#        150
#        11317
#        20669
#        35666
#        47943
#        58332
#        70565
#        82743
#        95386
#        106765
#        117744
#        128719
#        138823
#        149493
#
# Disc length: 2134 seconds
#
# Revision: 3
# Processed by: cddbd v1.5.2PL0 Copyright (c) Steve Scherf et al.
# Submitted via: ExactAudioCopy v0.99pb5
#
DISCID=bc08540e
DTITLE=Beatles - Rubber Soul [Mono Box Set]
DYEAR=1965
DGENRE=Rock
TTITLE0=Drive My Car
TTITLE1=Norwegian Wood (This Bird Has Flown)
TTITLE2=You Won't See Me
TTITLE3=Nowhere Man
TTITLE4=Think For Yourself
TTITLE5=The Word
TTITLE6=Michelle
TTITLE7=What Goes On
TTITLE8=Girl
TTITLE9=I'm Looking Through You
TTITLE10=In My Life
TTITLE11=Wait
TTITLE12=If I Needed Someone
TTITLE13=Run For Your Life
EXTD=
EXTT0=
EXTT1=
EXTT2=
EXTT3=
EXTT4=
EXTT5=
EXTT6=
EXTT7=
EXTT8=
EXTT9=
EXTT10=
EXTT11=
EXTT12=
EXTT13=
PLAYORDER=
